{
  "title": "Straight.Outta.Compton.2015.CAM.XviD.AC3-TheMuffinStuffers",
  "uid": 12239716,
  "size": 1799574980,
  "categoryP": "video",
  "categoryS": "movies",
  "magnet": "?xt=urn:btih:dc0552658f8b2dc76cdae41c99f7f9d35de87ba2&amp;dn=Straight.Outta.Compton.2015.CAM.XviD.AC3-TheMuffinStuffers&amp;tr=udp%3A%2F%2Ftracker.openbittorrent.com%3A80&amp;tr=udp%3A%2F%2Fopen.demonii.com%3A1337&amp;tr=udp%3A%2F%2Ftracker.coppersurfer.tk%3A6969&amp;tr=udp%3A%2F%2Fexodus.desync.com%3A6969",
  "seeders": 105,
  "leechers": 31,
  "uploader": "xxxlavalxxx",
  "files": 4,
  "time": 1439743995,
  "description": " &lt;a href=&quot;http://extraimago.com/image/ywX&quot; rel=&quot;nofollow&quot; target=&quot;_NEW&quot;&gt;http://extraimago.com/image/ywX&lt;/a&gt;\n &lt;a href=&quot;\nhttp://www.imdb.com/title/tt1398426/&quot; rel=&quot;nofollow&quot; target=&quot;_NEW&quot;&gt;\nhttp://www.imdb.com/title/tt1398426/&lt;/a&gt;\n\n\nThe group NWA emerges from the streets of Compton, California in the mid-1980s and revolutionizes Hip Hop culture with their music and tales about life in the hood.\n\nDirector: F. Gary Gray\nWriters: Jonathan Herman (screenplay), Andrea Berloff (screenplay)\nStars: O'Shea Jackson Jr., Corey Hawkins, Jason Mitchell\nGenres: Biography | Drama | Music\nCountry: USA\nLanguage: English\n\n\nStraight.Outta.Compton.2015.CAM.XviD.AC3-TheMuffinStuffers\n &lt;a href=&quot;\nhttp://www.imdb.com/title/tt1398426/&quot; rel=&quot;nofollow&quot; target=&quot;_NEW&quot;&gt;\nhttp://www.imdb.com/title/tt1398426/&lt;/a&gt;\n\nGeneral\nComplete name: Straight.Outta.Compton.2015.CAM.XviD.AC3-TheMuffinStuffers.avi\nFormat: AVI\nFormat/Info: Audio Video Interleave\nFile size: 1.62 GiB\nDuration: 2h 21mn\nOverall bit rate: 1 642 Kbps\n\nVideo\nID: 0\nFormat: MPEG-4 Visual\nFormat profile: Advanced Simple@L5\nFormat settings, BVOP: 2\nFormat settings, QPel: No\nFormat settings, GMC: No warppoints\nFormat settings, Matrix: Default (H.263)\nMuxing mode: Packed bitstream\nCodec ID: XVID\nCodec ID/Hint: XviD\nDuration: 2h 21mn\nBit rate: 1 250 Kbps\nWidth: 720 pixels\nHeight: 272 pixels\nDisplay aspect ratio: 2.647\nFrame rate: 29.970 fps\nColor space: YUV\nChroma subsampling: 4:2:0\nBit depth: 8 bits\nScan type: Progressive\nCompression mode: Lossy\nBits/(Pixel*Frame): 0.213\nStream size: 1.24 GiB (76%)\nWriting library: XviD 73\n\nAudio\nID: 1\nFormat: AC-3\nFormat/Info: Audio Coding 3\nMode extension: CM (complete main)\nFormat settings, Endianness: Big\nCodec ID: 2000\nDuration: 2h 21mn\nBit rate mode: Constant\nBit rate: 384 Kbps\nChannel(s): 2 channels\nChannel positions: Front: L R\nSampling rate: 44.1 KHz\nCompression mode: Lossy\nStream size: 389 MiB (23%)\nAlignment: Aligned on interleaves\nInterleave, duration: 70 ms (2.09 video frames)\nInterleave, preload duration: 208 ms\nTitle: Straight Outta Compton 2015_new \n\n &lt;a href=&quot;\nhttp://extraimago.com/image/ywg&quot; rel=&quot;nofollow&quot; target=&quot;_NEW&quot;&gt;\nhttp://extraimago.com/image/ywg&lt;/a&gt; &lt;a href=&quot;\nhttp://extraimago.com/image/yw5&quot; rel=&quot;nofollow&quot; target=&quot;_NEW&quot;&gt;\nhttp://extraimago.com/image/yw5&lt;/a&gt; &lt;a href=&quot;\nhttp://extraimago.com/image/ywD&quot; rel=&quot;nofollow&quot; target=&quot;_NEW&quot;&gt;\nhttp://extraimago.com/image/ywD&lt;/a&gt; &lt;a href=&quot;\nhttp://extraimago.com/image/ywF&quot; rel=&quot;nofollow&quot; target=&quot;_NEW&quot;&gt;\nhttp://extraimago.com/image/ywF&lt;/a&gt; &lt;a href=&quot;\nhttp://extraimago.com/image/ywH&quot; rel=&quot;nofollow&quot; target=&quot;_NEW&quot;&gt;\nhttp://extraimago.com/image/ywH&lt;/a&gt; &lt;a href=&quot;\nhttp://extraimago.com/image/ywk&quot; rel=&quot;nofollow&quot; target=&quot;_NEW&quot;&gt;\nhttp://extraimago.com/image/ywk&lt;/a&gt;",
  "parsed": {
    "xt": "urn:btih:dc0552658f8b2dc76cdae41c99f7f9d35de87ba2",
    "dn": "Straight.Outta.Compton.2015.CAM.XviD.AC3-TheMuffinStuffers",
    "tr": [
      "udp://exodus.desync.com:6969",
      "udp://open.demonii.com:1337",
      "udp://tracker.coppersurfer.tk:6969",
      "udp://tracker.openbittorrent.com:80"
    ],
    "infoHash": "dc0552658f8b2dc76cdae41c99f7f9d35de87ba2",
    "infoHashBuffer": {
      "type": "Buffer",
      "data": [
        220,
        5,
        82,
        101,
        143,
        139,
        45,
        199,
        108,
        218,
        228,
        28,
        153,
        247,
        249,
        211,
        93,
        232,
        123,
        162
      ]
    },
    "name": "Straight.Outta.Compton.2015.CAM.XviD.AC3-TheMuffinStuffers",
    "announce": [
      "udp://exodus.desync.com:6969",
      "udp://open.demonii.com:1337",
      "udp://tracker.coppersurfer.tk:6969",
      "udp://tracker.openbittorrent.com:80"
    ],
    "urlList": []
  },
  "previous": 136,
  "peers": 14,
  "last_updated": "2016-12-25T15:42:45.714Z"
}